<svg width="0" height="0" class="hidden">
  <symbol xmlns="http://www.w3.org/2000/svg" viewBox="0 0 21 21" id="search">
    <path d="M3.2 14.52C.05 11.37.05 6.25 3.2 3.11c3.15-3.15 8.27-3.15 11.41 0 2.67 2.67 3.08 6.64 1.22 9.74 0 0-.14.22.04.4l4.12 4.12c.82.82 1.02 1.96.29 2.69l-.13.13c-.72.72-1.87.53-2.69-.29l-4.11-4.11c-.19-.19-.41-.06-.41-.06-3.1 1.86-7.07 1.46-9.74-1.21zm9.92-1.49c2.33-2.33 2.33-6.11 0-8.43a5.957 5.957 0 00-8.43 0c-2.33 2.32-2.33 6.1 0 8.43 2.32 2.32 6.11 2.32 8.43 0zm-.51-4.7c.11 0 .22-.02.32-.06.43-.18.62-.67.44-1.09A5.239 5.239 0 006.5 4.39c-.42.18-.62.67-.44 1.09.18.43.67.62 1.09.44 1.82-.76 3.92.09 4.69 1.9.13.32.44.51.77.51z"></path>
  </symbol>
</svg>

