<svg width="0" height="0" class="hidden">
    <symbol xmlns="http://www.w3.org/2000/svg" viewBox="0 0 46 46" id="user">
        <path d="M23 .01C10.3.01.01 10.3.01 23 .01 35.69 10.3 45.99 23 45.99c12.69 0 22.99-10.3 22.99-22.99C45.99 10.3 35.7.01 23 .01zm0 6.87c4.2 0 7.6 3.41 7.6 7.61s-3.4 7.6-7.6 7.6c-4.2 0-7.61-3.4-7.61-7.6 0-4.2 3.41-7.61 7.61-7.61zm-.01 33.1c-4.19 0-8.03-1.53-10.98-4.05a3.23 3.23 0 01-1.14-2.47c0-4.26 3.44-7.66 7.7-7.66h8.85c4.26 0 7.7 3.4 7.7 7.66 0 .95-.42 1.85-1.14 2.46-2.96 2.53-6.8 4.06-10.99 4.06z" fill="#19191b"></path>
    </symbol>
    <symbol xmlns="http://www.w3.org/2000/svg" viewBox="0 0 18 18" id="search">
        <path d="M17.45 15.86l-3.78-3.8a7.598 7.598 0 001.42-4.44c0-2.03-.78-3.95-2.21-5.39A7.552 7.552 0 007.52 0C5.5 0 3.59.79 2.16 2.23A7.612 7.612 0 00-.06 7.62c0 2.04.79 3.95 2.22 5.39a7.52 7.52 0 009.77.81l3.77 3.8a1.24 1.24 0 001.75 0c.48-.49.48-1.28 0-1.76zm-13.54-4.6c-.96-.97-1.5-2.27-1.5-3.64s.54-2.66 1.5-3.63c.96-.97 2.25-1.5 3.61-1.5 1.36 0 2.64.53 3.61 1.5a5.13 5.13 0 011.49 3.63c0 1.37-.53 2.67-1.49 3.64-.97.97-2.25 1.5-3.61 1.5-1.37 0-2.65-.53-3.61-1.5z"></path>
    </symbol>
</svg>