<svg width="0" height="0" class="hidden">
    <symbol xmlns="http://www.w3.org/2000/svg" viewBox="0 0 46 46" id="New Project">
        <path d="M23 .01C10.3.01.01 10.3.01 23 .01 35.69 10.3 45.99 23 45.99c12.69 0 22.99-10.3 22.99-22.99C45.99 10.3 35.7.01 23 .01zm0 6.87c4.2 0 7.6 3.41 7.6 7.61s-3.4 7.6-7.6 7.6c-4.2 0-7.61-3.4-7.61-7.6 0-4.2 3.41-7.61 7.61-7.61zm-.01 33.1c-4.19 0-8.03-1.53-10.98-4.05a3.23 3.23 0 01-1.14-2.47c0-4.26 3.44-7.66 7.7-7.66h8.85c4.26 0 7.7 3.4 7.7 7.66 0 .95-.42 1.85-1.14 2.46-2.96 2.53-6.8 4.06-10.99 4.06z" fill="#19191b"></path>
    </symbol>
</svg>