<svg width="0" height="0" class="hidden">
    <symbol xmlns="http://www.w3.org/2000/svg" viewBox="0 0 140 140" id="user">
        <path d="M69.99.01C31.35.01.01 31.34.01 69.99c0 38.65 31.34 69.98 69.98 69.98 38.65 0 69.98-31.33 69.98-69.98 0-38.65-31.33-69.98-69.98-69.98zm0 20.93c12.79 0 23.15 10.36 23.15 23.15 0 12.78-10.36 23.14-23.15 23.14-12.78 0-23.14-10.36-23.14-23.14 0-12.79 10.36-23.15 23.14-23.15zm-.01 100.74c-12.76 0-24.44-4.65-33.45-12.34a9.866 9.866 0 01-3.46-7.5c0-12.96 10.49-23.33 23.46-23.33h26.93c12.97 0 23.43 10.37 23.43 23.33 0 2.89-1.27 5.63-3.47 7.5-9 7.69-20.69 12.34-33.44 12.34z" fill="#232428"></path>
        <path d="M69.99.01C31.35.01.01 31.34.01 69.99c0 38.65 31.34 69.98 69.98 69.98 38.65 0 69.98-31.33 69.98-69.98 0-38.65-31.33-69.98-69.98-69.98zm0 20.93c12.79 0 23.15 10.36 23.15 23.15 0 12.78-10.36 23.14-23.15 23.14-12.78 0-23.14-10.36-23.14-23.14 0-12.79 10.36-23.15 23.14-23.15zm-.01 100.74c-12.76 0-24.44-4.65-33.45-12.34a9.866 9.866 0 01-3.46-7.5c0-12.96 10.49-23.33 23.46-23.33h26.93c12.97 0 23.43 10.37 23.43 23.33 0 2.89-1.27 5.63-3.47 7.5-9 7.69-20.69 12.34-33.44 12.34z"></path>
    </symbol>
    <symbol xmlns="http://www.w3.org/2000/svg" viewBox="0 0 18 18" id="search">
        <path d="M17.45 15.86l-3.78-3.8a7.598 7.598 0 001.42-4.44c0-2.03-.78-3.95-2.21-5.39A7.552 7.552 0 007.52 0C5.5 0 3.59.79 2.16 2.23A7.612 7.612 0 00-.06 7.62c0 2.04.79 3.95 2.22 5.39a7.52 7.52 0 009.77.81l3.77 3.8a1.24 1.24 0 001.75 0c.48-.49.48-1.28 0-1.76zm-13.54-4.6c-.96-.97-1.5-2.27-1.5-3.64s.54-2.66 1.5-3.63c.96-.97 2.25-1.5 3.61-1.5 1.36 0 2.64.53 3.61 1.5a5.13 5.13 0 011.49 3.63c0 1.37-.53 2.67-1.49 3.64-.97.97-2.25 1.5-3.61 1.5-1.37 0-2.65-.53-3.61-1.5z"></path>
    </symbol>
    <symbol xmlns="http://www.w3.org/2000/svg" viewBox="0 0 18 16" id="back">
        <path d="M17.99.01L14.77 8l3.22 7.99L.01 8 17.99.01z"></path>
    </symbol>
</svg>