<svg width="0" height="0" class="hidden">
  <symbol xmlns="http://www.w3.org/2000/svg" viewBox="0 0 31.08 27.157" id="right-arrow">
    <path d="M30.89 13.101L17.934.188a.654.654 0 0 0-.706-.14.647.647 0 0 0-.4.6v7.12H.647A.648.648 0 0 0 0 8.413V18.77a.648.648 0 0 0 .647.647h16.182v7.093a.649.649 0 0 0 .4.6.638.638 0 0 0 .247.049.652.652 0 0 0 .458-.189l12.957-12.953a.648.648 0 0 0 0-.917z"></path>
  </symbol>
  <symbol xmlns="http://www.w3.org/2000/svg" viewBox="0 0 12 8" id="down-arrow">
    <g fill="none" stroke-linejoin="round">
        <path d="M6 1l5 6H1z"></path>
        <path d="M6 1L1 7h10L6 1m0-1a1 1 0 01.768.36l5 6A1 1 0 0111 8H1a1 1 0 01-.768-1.64l5-6A1 1 0 016 0z" fill="#ffae00"></path>
    </g>
  </symbol>
   <symbol xmlns="http://www.w3.org/2000/svg" viewBox="0 0 92.222 108.998" id="user">
    <path d="M91.966 89.617l-2.3-9.2a13.359 13.359 0 00-8.759-9.5L64.041 65.3c-4.113-1.713-6-8.337-6.4-10.852a15.938 15.938 0 005.635-10.361 3.125 3.125 0 01.464-1.974 1.916 1.916 0 001.315-1.15 28.65 28.65 0 002.055-8.376 1.843 1.843 0 00-.058-.464 4.929 4.929 0 00-1.859-2.791V19.166c0-6.175-1.886-8.709-3.872-10.177C60.94 6.014 57.754 0 46.02 0a19.987 19.987 0 00-19.162 19.166v10.162a4.929 4.929 0 00-1.859 2.791 1.843 1.843 0 00-.058.464 28.651 28.651 0 002.055 8.38 1.629 1.629 0 001.15 1.1c.215.107.617.663.617 2.02a15.935 15.935 0 005.666 10.38c-.4 2.511-2.273 9.131-6.271 10.8l-17.016 5.65a13.359 13.359 0 00-8.755 9.497l-2.3 9.2A1.917 1.917 0 001.942 92h88.165a1.916 1.916 0 001.859-2.381z"></path>
    <path d="M42.086 72.091c25.405 0 48.09 9.526 50.021 18.364s-20.669 18.543-46.074 18.543-47.142-9.9-45.989-18.807 16.637-18.1 42.042-18.1z"></path>
  </symbol>
</svg>

