<svg width="0" height="0" class="hidden">
  <symbol xmlns="http://www.w3.org/2000/svg" viewBox="0 0 31.08 27.157" id="right-arrow">
    <path d="M30.89 13.101L17.934.188a.654.654 0 0 0-.706-.14.647.647 0 0 0-.4.6v7.12H.647A.648.648 0 0 0 0 8.413V18.77a.648.648 0 0 0 .647.647h16.182v7.093a.649.649 0 0 0 .4.6.638.638 0 0 0 .247.049.652.652 0 0 0 .458-.189l12.957-12.953a.648.648 0 0 0 0-.917z"></path>
  </symbol>
  <symbol xmlns="http://www.w3.org/2000/svg" viewBox="0 0 12 8" id="down-arrow">
    <g fill="none" stroke-linejoin="round">
      <path d="M6 1l5 6H1z"></path>
      <path d="M6 1L1 7h10L6 1m0-1a1 1 0 01.768.36l5 6A1 1 0 0111 8H1a1 1 0 01-.768-1.64l5-6A1 1 0 016 0z" fill="#ffae00"></path>
    </g>
  </symbol>
</svg>

